<?xml version="1.0" encoding="utf-8"?>
<!-- Generator: Adobe Illustrator 18.0.0, SVG Export Plug-In . SVG Version: 6.00 Build 0)  -->
<!DOCTYPE svg PUBLIC "-//W3C//DTD SVG 1.1//EN" "http://www.w3.org/Graphics/SVG/1.1/DTD/svg11.dtd" [
	<!ENTITY ns_extend "http://ns.adobe.com/Extensibility/1.0/">
	<!ENTITY ns_ai "http://ns.adobe.com/AdobeIllustrator/10.0/">
	<!ENTITY ns_graphs "http://ns.adobe.com/Graphs/1.0/">
	<!ENTITY ns_vars "http://ns.adobe.com/Variables/1.0/">
	<!ENTITY ns_imrep "http://ns.adobe.com/ImageReplacement/1.0/">
	<!ENTITY ns_sfw "http://ns.adobe.com/SaveForWeb/1.0/">
	<!ENTITY ns_custom "http://ns.adobe.com/GenericCustomNamespace/1.0/">
	<!ENTITY ns_adobe_xpath "http://ns.adobe.com/XPath/1.0/">
]>
<svg version="1.1" id="Calque_1" xmlns:x="&ns_extend;" xmlns:i="&ns_ai;" xmlns:graph="&ns_graphs;"
	 xmlns="http://www.w3.org/2000/svg" xmlns:xlink="http://www.w3.org/1999/xlink" x="0px" y="0px" width="250px" height="250px"
	 viewBox="0 0 250 250" enable-background="new 0 0 250 250" xml:space="preserve">
<metadata>
	<sfw  xmlns="&ns_sfw;">
		<slices></slices>
		<sliceSourceBounds  width="250" height="171.6" x="0" y="39.2" bottomLeftOrigin="true"></sliceSourceBounds>
	</sfw>
</metadata>
<g>
	<path fill="#1D1D1B" d="M165.9,89.8H84.1c-3.5,0-6.3,2.8-6.3,6.3v58.2c0,3.5,2.8,6.3,6.3,6.3h81.8c3.5,0,6.3-2.8,6.3-6.3V96.1
		C172.2,92.6,169.4,89.8,165.9,89.8z M166,127.7c-1.4,0-2.5-1.1-2.5-2.5s1.1-2.5,2.5-2.5s2.5,1.1,2.5,2.5
		C168.6,126.6,167.4,127.7,166,127.7z"/>
	<path fill="#1D1D1B" d="M197.4,39.2H52.6c-7.8,0-14.2,6.4-14.2,14.2v81.8c0,7.8,6.3,14.2,14.2,14.2h21.2v-18.9H46.3V53.4
		c0-3.5,2.8-6.3,6.3-6.3h144.8c3.5,0,6.3,2.8,6.3,6.3v77.1h-27.5v18.9h21.2c7.8,0,14.2-6.4,14.2-14.2V53.4
		C211.5,45.6,205.2,39.2,197.4,39.2z M197.6,141.9c-1.4,0-2.5-1.1-2.5-2.5s1.1-2.5,2.5-2.5s2.5,1.1,2.5,2.5
		C200.2,140.8,199,141.9,197.6,141.9z"/>
	<g>
		<path fill="#1D1D1B" d="M7.1,210.8c-4.5,0-6.6-3.2-7.1-4.2l1.4-1c0.8,1.5,2.9,3.6,5.8,3.6s5.4-1.8,5.4-4.9c0-3-3.1-4.2-4.4-4.7
			s-2.9-1.2-3.8-1.7s-3.4-2-3.4-5.4s2.9-5.7,6.8-5.7s5.8,2.7,6,3l-1.3,1.1c-0.9-1.1-2.2-2.5-4.9-2.5s-4.8,1.4-4.8,4s1.8,3.7,3.5,4.4
			c1.6,0.7,4.2,1.8,4.8,2.1c0.5,0.3,3.4,1.8,3.4,5.4C14.5,207.9,11.6,210.8,7.1,210.8z"/>
		<path fill="#1D1D1B" d="M31.7,210.4H18.9v-23.2h12.6v1.6H20.7v8.4h10.2v1.6H20.7v9.8h11V210.4z"/>
		<path fill="#1D1D1B" d="M55,207.2c-1.7,1.8-4.4,3.6-8.6,3.6c-6.7,0-11.7-4.9-11.7-12s5.1-12,11.7-12c4,0,6.7,1.7,8.4,3.4l-1.2,1.3
			c-1.2-1.5-3.9-3.1-7.2-3.1c-5.7,0-9.7,4.2-9.7,10.2s4,10.3,9.7,10.3c3.2,0,5.7-1.2,7.4-3.1L55,207.2z"/>
		<path fill="#1D1D1B" d="M68.5,210.8c-6.3,0-11.8-4.6-11.8-12s5.5-12,11.8-12s11.8,4.6,11.8,12S74.8,210.8,68.5,210.8z M68.5,188.5
			c-5.3,0-9.8,3.8-9.8,10.3s4.6,10.3,9.8,10.3c5.3,0,9.9-3.8,9.9-10.3S73.8,188.5,68.5,188.5z"/>
		<path fill="#1D1D1B" d="M103.5,210.4h-1.6l-15.5-20.3v20.3h-1.8v-23.2h1.8l15.3,20v-20h1.8C103.5,187.2,103.5,210.4,103.5,210.4z"
			/>
		<path fill="#1D1D1B" d="M124,207.2c-1.5,1.5-4.4,3.2-8.5,3.2h-6.4v-23.2h6.4c4,0,7,1.7,8.5,3.2s3.5,4.2,3.5,8.4
			C127.6,203,125.6,205.7,124,207.2z M122.5,191.3c-1.5-1.4-3.9-2.5-7.1-2.5H111v19.9h4.4c3.2,0,5.6-1.1,7.1-2.5s3.2-3.8,3.2-7.5
			C125.7,195.1,123.9,192.7,122.5,191.3z"/>
		<path fill="#1D1D1B" d="M144.1,208.9c-1.6,1.3-3.8,1.9-6.3,1.9c-3.4,0-6.3-1.7-8.2-3.5l2.7-4c1.7,1.7,4.3,2.9,6,2.9
			s3.1-0.8,3.1-2.4c0-1.6-1.7-2.2-2.7-2.6c-1-0.4-2.8-1-3.5-1.3c-0.6-0.3-1.7-0.7-2.8-1.7c-1-0.9-1.8-2.3-1.8-4.5s1.1-4,2.4-5.1
			c1.3-1.1,3.4-1.8,6.1-1.8c2.7,0,5.8,1.3,7.4,2.9l-2.3,3.8c-1.3-1.3-3.4-2.4-5.2-2.4c-1.7,0-3,0.7-3,2.1s1.3,1.9,2.4,2.4
			c1,0.4,2.7,1,3.5,1.3c0.6,0.2,2.2,0.8,3.2,1.9c1,1,1.8,2.4,1.8,4.5C146.8,205.5,145.7,207.5,144.1,208.9z"/>
		<path fill="#1D1D1B" d="M169,207.6c-1.2,1.2-3.6,3.2-8.4,3.2c-6.8,0-12.2-4.5-12.2-12s5.4-12,12.2-12c4.8,0,7.4,2,8,2.6l-1.7,4.5
			c-0.4-0.6-2.9-2.4-6-2.4c-3.9,0-7,2.6-7,7.2c0,4.5,3.2,7.1,7,7.1c2.9,0,5-1.1,6.2-2.5L169,207.6z"/>
		<path fill="#1D1D1B" d="M189.9,210.4h-6.3l-4.9-8.9H177v8.9h-5.4v-23.2h8.3c2.6,0,4.6,0.5,6.1,1.6c1.6,1.1,2.6,3,2.6,5.3
			c0,4.4-2.8,6.1-4.5,6.7L189.9,210.4z M181.9,192c-0.7-0.5-1.5-0.6-2.8-0.6h-2.2v5.9h2.2c1.2,0,2.1-0.1,2.8-0.6s1.2-1.1,1.2-2.4
			C183,193.2,182.6,192.5,181.9,192z"/>
		<path fill="#1D1D1B" d="M207,210.4h-15.3v-23.2h15v4.3h-9.6v4.7h9.1v4.3h-9.1v5.4h9.9L207,210.4L207,210.4z"/>
		<path fill="#1D1D1B" d="M225.7,210.4h-15.3v-23.2h15v4.3h-9.6v4.7h9.1v4.3h-9.1v5.4h9.9L225.7,210.4L225.7,210.4z"/>
		<path fill="#1D1D1B" d="M250,210.4h-5.6l-10.2-15.7c0,0,0.1,2.8,0.1,5.2v10.5H229v-23.2h5.8l9.9,15.6c0,0-0.1-2.6-0.1-5.1v-10.5
			h5.3v23.2H250z"/>
	</g>
</g>
</svg>
